# xmcd CD database file
#
# Track frame offsets:
#	150
#	50637
#	96387
#	165012
#	236937
#
# Disc length: 3864 seconds
#
# Revision: 1
# Processed by: cddbd v1.5.1PL2 Copyright (c) Steve Scherf et al.
# Submitted via: CDex 1.51
#
DISCID=3a0f1605
DTITLE=Charles Tolliver - Grand Max
DYEAR=1972
DGENRE=Jazz
TTITLE0=Grand Max
TTITLE1=Truth
TTITLE2=Prayer For Peace
TTITLE3=Our Second Father
TTITLE4=Repetition
EXTD=YEAR: 1972
EXTT0=
EXTT1=
EXTT2=
EXTT3=
EXTT4=
PLAYORDER=
